<?xml version="1.0" standalone="no"?><svg xmlns="http://www.w3.org/2000/svg" viewBox="0 0 1440 320"><path fill="#49a74c" fill-opacity="1" d="M0,96L30,85.3C60,75,120,53,180,48C240,43,300,53,360,101.3C420,149,480,235,540,234.7C600,235,660,149,720,96C780,43,840,21,900,48C960,75,1020,149,1080,149.3C1140,149,1200,75,1260,37.3C1320,0,1380,0,1410,0L1440,0L1440,320L1410,320C1380,320,1320,320,1260,320C1200,320,1140,320,1080,320C1020,320,960,320,900,320C840,320,780,320,720,320C660,320,600,320,540,320C480,320,420,320,360,320C300,320,240,320,180,320C120,320,60,320,30,320L0,320Z"></path></svg>